<svg width="18" height="18" viewBox="0 0 18 18" fill="none" xmlns="http://www.w3.org/2000/svg">
<path d="M7.33015 13.9756H1.02943" stroke="white" stroke-width="1.5" stroke-linecap="round" stroke-linejoin="round"/>
<path d="M10.1405 3.47539H16.4412" stroke="white" stroke-width="1.5" stroke-linecap="round" stroke-linejoin="round"/>
<path fill-rule="evenodd" clip-rule="evenodd" d="M5.72629 3.41677C5.72629 2.01315 4.66813 0.875 3.36314 0.875C2.05816 0.875 1 2.01315 1 3.41677C1 4.8204 2.05816 5.95855 3.36314 5.95855C4.66813 5.95855 5.72629 4.8204 5.72629 3.41677Z" stroke="white" stroke-width="1.5" stroke-linecap="round" stroke-linejoin="round"/>
<path fill-rule="evenodd" clip-rule="evenodd" d="M17 13.9333C17 12.5296 15.9427 11.3915 14.6377 11.3915C13.3319 11.3915 12.2737 12.5296 12.2737 13.9333C12.2737 15.3369 13.3319 16.475 14.6377 16.475C15.9427 16.475 17 15.3369 17 13.9333Z" stroke="white" stroke-width="1.5" stroke-linecap="round" stroke-linejoin="round"/>
</svg>
